<?xml version="1.0" encoding="UTF-8"?>
<svg version="1.1" xmlns="http://www.w3.org/2000/svg" width="467" height="214">
<path d="M0 0 C5.37532942 6.14140962 5.34492642 11.42931436 5.67944336 19.42553711 C5.76813989 21.41027223 5.88482757 23.39369263 6.00195312 25.37695312 C6.31361902 32.77807931 6.33329612 39.12309172 1.95703125 45.37890625 C-5.21379108 51.23263876 -11.9337711 50.59318368 -20.79296875 50.62890625 C-22.05625 50.64953125 -23.31953125 50.67015625 -24.62109375 50.69140625 C-32.92714693 50.72630563 -37.94210404 50.05338323 -44.91796875 45.50390625 C-49.81295934 40.60891566 -48.26475245 31.9831839 -48.28320312 25.51391602 C-48.29292389 23.45092669 -48.32399505 21.38892862 -48.35546875 19.32617188 C-48.360625 18.01455078 -48.36578125 16.70292969 -48.37109375 15.3515625 C-48.38043945 14.15797119 -48.38978516 12.96437988 -48.39941406 11.73461914 C-47.8631316 6.68585037 -46.23688739 3.45634502 -42.48046875 0.06640625 C-33.43772066 -6.19395781 -8.68909297 -6.89478697 0 0 Z M-31.20703125 15.34765625 C-32.01914062 16.18296875 -32.83125 17.01828125 -33.66796875 17.87890625 C-34.89386719 19.131875 -34.89386719 19.131875 -36.14453125 20.41015625 C-36.77101563 21.05984375 -37.3975 21.70953125 -38.04296875 22.37890625 C-37.25178971 24.37874159 -37.25178971 24.37874159 -36.04296875 26.37890625 C-35.05296875 26.70890625 -34.06296875 27.03890625 -33.04296875 27.37890625 C-32.73359375 28.01828125 -32.42421875 28.65765625 -32.10546875 29.31640625 C-30.80873495 31.8335954 -29.62079505 32.34777573 -27.04296875 33.37890625 C-27.52229345 29.06498399 -28.78876725 27.21321078 -32.04296875 24.37890625 C-31.0411147 22.14400106 -30.23180145 20.55321336 -28.41796875 18.87890625 C-26.59248566 17.22661225 -26.59248566 17.22661225 -27.04296875 13.37890625 C-29.28400285 13.15459339 -29.28400285 13.15459339 -31.20703125 15.34765625 Z M-16.04296875 13.37890625 C-15.66700666 16.16102569 -15.36978416 17.96683465 -13.60546875 20.19140625 C-12.10467132 21.58060067 -12.10467132 21.58060067 -10.04296875 21.37890625 C-12.72717928 26.10822956 -12.72717928 26.10822956 -14.79296875 27.87890625 C-15.20546875 28.37390625 -15.61796875 28.86890625 -16.04296875 29.37890625 C-15.81253011 32.03356674 -15.81253011 32.03356674 -15.04296875 34.37890625 C-14.34171875 33.65703125 -13.64046875 32.93515625 -12.91796875 32.19140625 C-10.1152613 29.38066812 -7.12034083 26.88374399 -4.04296875 24.37890625 C-8.78859961 18.63734205 -8.78859961 18.63734205 -14.04296875 13.37890625 C-14.70296875 13.37890625 -15.36296875 13.37890625 -16.04296875 13.37890625 Z " fill="#F6F8F7" transform="translate(367.04296875,64.62109375)"/>
<path d="M0 0 C1.60725635 3.21451269 1.05748185 6.43612536 1 10 C-0.90845703 9.76023437 -0.90845703 9.76023437 -2.85546875 9.515625 C-8.01404127 8.9459295 -13.12559977 8.78108255 -18.3125 8.75 C-19.63217773 8.7190625 -19.63217773 8.7190625 -20.97851562 8.6875 C-24.50521877 8.66607735 -27.2959015 8.718573 -30.58984375 10.03515625 C-32.76360649 13.06397248 -32.42330093 16.11816742 -32.25 19.6875 C-32.22292969 20.7403418 -32.22292969 20.7403418 -32.1953125 21.81445312 C-32.14826213 23.54355436 -32.07651873 25.27195205 -32 27 C-30.87356079 27.05945801 -30.87356079 27.05945801 -29.72436523 27.12011719 C-26.29409528 27.31164302 -22.86609345 27.53057002 -19.4375 27.75 C-17.66536133 27.8428125 -17.66536133 27.8428125 -15.85742188 27.9375 C-9.17153711 28.38697124 -4.4350635 28.9642914 1 33 C4.78718962 38.16434948 4.4173624 45.84390465 4 52 C3.23664447 56.84036803 1.87921356 60.99870419 -1 65 C-8.20524053 69.29507397 -16.09108358 69.5442874 -24.25 69.3125 C-25.28640625 69.30283203 -26.3228125 69.29316406 -27.390625 69.28320312 C-32.68084965 69.20560417 -37.78666165 68.90570709 -43 68 C-43.33 64.7 -43.66 61.4 -44 58 C-43.25878906 58.0721875 -42.51757812 58.144375 -41.75390625 58.21875 C-35.15648447 58.80016294 -28.62119021 59.10775545 -22 59.125 C-20.92407593 59.13176758 -20.92407593 59.13176758 -19.82641602 59.13867188 C-16.09236849 59.12813488 -12.6299729 58.89331364 -9 58 C-8.94619422 55.20807795 -8.90642331 52.4171859 -8.875 49.625 C-8.85824219 48.8309375 -8.84148437 48.036875 -8.82421875 47.21875 C-8.80664527 45.14507985 -8.89664832 43.07116759 -9 41 C-10.94440353 38.59155631 -10.94440353 38.59155631 -14.52734375 38.9453125 C-15.99751257 39.00227104 -17.46756291 39.06234539 -18.9375 39.125 C-26.75716628 39.3008063 -34.54253697 38.76645894 -40.7890625 33.48828125 C-42 32 -42 32 -42 30 C-42.66 30 -43.32 30 -44 30 C-45.52444644 23.13999102 -46.24550222 14.87200009 -44.125 8.0625 C-40.41875133 2.72114162 -34.90885766 0.53930154 -28.62890625 -0.625 C-19.53894958 -1.56432814 -8.97469295 -2.11403878 0 0 Z " fill="#F5F7F6" transform="translate(144,46)"/>
<path d="M0 0 C1.81325551 0.11351517 3.62563357 0.24112961 5.4375 0.375 C6.44683594 0.44460937 7.45617187 0.51421875 8.49609375 0.5859375 C9.73552734 0.79089844 9.73552734 0.79089844 11 1 C12 3 12 3 11.6171875 4.77734375 C9.76554734 10.16659115 7.5624428 15.28875493 5.0859375 20.421875 C4.01774377 22.9578745 3.4385561 25.29069785 3 28 C2.34 28 1.68 28 1 28 C0.84349976 29.00123901 0.84349976 29.00123901 0.68383789 30.02270508 C-0.16453263 33.71634255 -1.52371819 37.1343412 -2.94140625 40.63671875 C-3.22853989 41.35737015 -3.51567352 42.07802155 -3.81150818 42.82051086 C-4.72447883 45.11114099 -5.64292544 47.39951377 -6.5625 49.6875 C-7.48533934 51.9863137 -8.40688848 54.28560007 -9.32420349 56.58662415 C-9.89402488 58.0158348 -10.46706041 59.44376896 -11.04359436 60.87028503 C-12.50500308 64.32695949 -12.50500308 64.32695949 -13 68 C-17.94816714 70.80396138 -22.61682285 69.77350507 -28 69 C-29.00419637 66.5433053 -30.00350501 64.08481647 -31 61.625 C-31.42925781 60.57699219 -31.42925781 60.57699219 -31.8671875 59.5078125 C-34 54.2265625 -34 54.2265625 -34 52 C-34.66 51.67 -35.32 51.34 -36 51 C-36 49.68 -36 48.36 -36 47 C-36.66 46.67 -37.32 46.34 -38 46 C-38.65600586 44.21362305 -38.65600586 44.21362305 -39.27734375 41.82421875 C-41.22012923 34.96036132 -43.90416579 28.42515001 -46.5625 21.8125 C-47.5470147 19.36224468 -48.52660895 16.91019293 -49.50390625 14.45703125 C-49.93517822 13.38428955 -50.3664502 12.31154785 -50.81079102 11.20629883 C-52.06289105 7.83043562 -53.05359612 4.47215517 -54 1 C-50.04 1 -46.08 1 -42 1 C-38 9.75 -38 9.75 -38 12 C-37.34 12.33 -36.68 12.66 -36 13 C-35.28686523 14.91821289 -35.28686523 14.91821289 -34.62109375 17.41015625 C-33.07031795 22.8860595 -31.12716231 28.13751576 -29.0625 33.4375 C-28.35485373 35.27320053 -27.64781665 37.10913603 -26.94140625 38.9453125 C-26.60641113 39.81446289 -26.27141602 40.68361328 -25.92626953 41.57910156 C-24.22305331 46.03062819 -22.59838407 50.50980265 -21 55 C-18.32194328 48.67522774 -15.70122252 42.32953727 -13.1875 35.9375 C-12.76855469 34.87402344 -12.34960938 33.81054688 -11.91796875 32.71484375 C-10.83984303 30.0039844 -10.83984303 30.0039844 -11 27 C-10.34 27 -9.68 27 -9 27 C-8.85304687 26.3915625 -8.70609375 25.783125 -8.5546875 25.15625 C-6.34414272 16.51733938 -3.21840771 8.30120048 0 0 Z " fill="#7FC3E8" transform="translate(82,45)"/>
<path d="M0 0 C2.62206639 3.70705939 4.07338645 6.3004483 4.0078125 10.890625 C4.00281738 11.6115332 3.99782227 12.33244141 3.99267578 13.07519531 C3.97446777 13.97850586 3.95625977 14.88181641 3.9375 15.8125 C3.89625 18.7 3.855 21.5875 3.8125 24.5625 C-7.0775 24.5625 -17.9675 24.5625 -29.1875 24.5625 C-29.0097332 33.63014359 -29.0097332 33.63014359 -26.625 37.125 C-20.76414067 40.58140422 -13.23980145 39.58921028 -6.6875 39.125 C-5.86507812 39.07279297 -5.04265625 39.02058594 -4.1953125 38.96679688 C-2.19227101 38.83869538 -0.18981129 38.70154939 1.8125 38.5625 C2.69090996 41.65970845 2.80685406 43.46895403 1.8125 46.5625 C1.1525 46.5625 0.4925 46.5625 -0.1875 46.5625 C-0.6825 47.5525 -0.6825 47.5525 -1.1875 48.5625 C-27.60519335 50.98565831 -27.60519335 50.98565831 -36.05078125 44.02734375 C-41.14251089 38.18978328 -40.40729444 32.22088442 -40.42773438 24.92382812 C-40.43739952 22.83422421 -40.4684027 20.74562131 -40.5 18.65625 C-40.50653453 17.31771415 -40.51178323 15.97917129 -40.515625 14.640625 C-40.5249707 13.42793945 -40.53431641 12.21525391 -40.54394531 10.96582031 C-40.08289455 6.56373293 -38.73446107 3.13232257 -35.6015625 -0.046875 C-25.89368885 -6.23617436 -9.13911316 -8.62989571 0 0 Z M-28.1875 5.5625 C-29.66184165 9.45847867 -29.66184165 9.45847867 -29.1875 17.5625 C-21.9275 17.5625 -14.6675 17.5625 -7.1875 17.5625 C-5.90538203 7.36745102 -5.90538203 7.36745102 -9.30859375 4.39453125 C-12.43614615 3.4906389 -14.99496696 3.19650388 -18.25 3.25 C-19.78333984 3.25580078 -19.78333984 3.25580078 -21.34765625 3.26171875 C-24.17535138 3.56121328 -25.85716271 3.95332945 -28.1875 5.5625 Z " fill="#F5F7F6" transform="translate(256.1875,66.4375)"/>
<path d="M0 0 C3.13558736 2.1622343 5.07805042 4.8475071 6.76171875 8.21484375 C6.85090652 9.60393679 6.87931416 10.99721282 6.87524414 12.38916016 C6.87516861 13.24990143 6.87509308 14.1106427 6.87501526 14.99746704 C6.86985397 15.92771698 6.86469269 16.85796692 6.859375 17.81640625 C6.85796005 18.76800629 6.8565451 19.71960632 6.85508728 20.70004272 C6.84947887 23.74667472 6.83692494 26.79323388 6.82421875 29.83984375 C6.81920483 31.90234269 6.81464174 33.96484278 6.81054688 36.02734375 C6.79950671 41.08987192 6.78223642 46.15234548 6.76171875 51.21484375 C5.30348663 51.24184805 3.845112 51.26124162 2.38671875 51.27734375 C1.16855469 51.29474609 1.16855469 51.29474609 -0.07421875 51.3125 C-2.23828125 51.21484375 -2.23828125 51.21484375 -4.23828125 50.21484375 C-4.26801025 48.46627075 -4.26801025 48.46627075 -4.29833984 46.68237305 C-4.37437084 42.3603747 -4.46309201 38.03871413 -4.55566406 33.71704102 C-4.59396419 31.84601507 -4.62881525 29.97491522 -4.66015625 28.10375977 C-4.70578449 25.41525856 -4.76378213 22.72726652 -4.82421875 20.0390625 C-4.83576996 19.20146896 -4.84732117 18.36387543 -4.85922241 17.50090027 C-4.95874582 13.59111338 -5.02301145 11.53774845 -7.23828125 8.21484375 C-13.16077719 5.80197503 -19.42678578 7.31721258 -25.23828125 9.21484375 C-26.31593498 13.65201585 -26.45502647 18.03620647 -26.5546875 22.578125 C-26.5754686 23.37010788 -26.59624969 24.16209076 -26.61766052 24.97807312 C-26.68275929 27.49441303 -26.74185548 30.01085247 -26.80078125 32.52734375 C-26.84400425 34.23894236 -26.88761973 35.9505311 -26.93164062 37.66210938 C-27.03839972 41.84625359 -27.1397776 46.03049737 -27.23828125 50.21484375 C-30.23828125 51.21484375 -30.23828125 51.21484375 -38.23828125 50.21484375 C-38.23828125 33.38484375 -38.23828125 16.55484375 -38.23828125 -0.78515625 C-34.60828125 -0.78515625 -30.97828125 -0.78515625 -27.23828125 -0.78515625 C-26.90828125 -0.12515625 -26.57828125 0.53484375 -26.23828125 1.21484375 C-25.7071875 1.00988281 -25.17609375 0.80492188 -24.62890625 0.59375 C-23.56929687 0.18962891 -23.56929687 0.18962891 -22.48828125 -0.22265625 C-21.44414062 -0.62291016 -21.44414062 -0.62291016 -20.37890625 -1.03125 C-13.05507313 -3.61062918 -6.85121817 -3.78230316 0 0 Z " fill="#F6F7F7" transform="translate(197.23828125,63.78515625)"/>
<path d="M0 0 C0.71607422 0.00064453 1.43214844 0.00128906 2.16992188 0.00195312 C6.68175342 0.0389017 10.98562083 0.45624521 15.4375 1.1875 C15.4375 3.8275 15.4375 6.4675 15.4375 9.1875 C14.7261792 9.17178955 14.0148584 9.1560791 13.28198242 9.13989258 C10.06306896 9.07758085 6.84428232 9.03852133 3.625 9 C2.50544922 8.97486328 1.38589844 8.94972656 0.23242188 8.92382812 C-1.37729492 8.90932617 -1.37729492 8.90932617 -3.01953125 8.89453125 C-4.00928955 8.8788208 -4.99904785 8.86311035 -6.01879883 8.84692383 C-8.58314026 8.99046614 -8.58314026 8.99046614 -10.39331055 10.47924805 C-12.29861372 13.2630038 -11.80385825 15.92916365 -11.5625 19.1875 C-11.2325 19.5175 -10.9025 19.8475 -10.5625 20.1875 C-8.58290379 20.18152837 -6.60339342 20.13175531 -4.625 20.0625 C3.05342896 20.02035714 9.43471587 20.73624765 15.5 25.6875 C18.74722953 29.87747358 18.54732297 33.21679585 18.5 38.375 C18.49097656 39.64730469 18.48195313 40.91960937 18.47265625 42.23046875 C18.46105469 43.20628906 18.44945312 44.18210938 18.4375 45.1875 C17.7775 45.1875 17.1175 45.1875 16.4375 45.1875 C16.17839844 45.80238281 15.91929687 46.41726562 15.65234375 47.05078125 C13.85329769 50.21501982 11.90313417 51.00346675 8.59765625 52.36328125 C4.38566213 53.46183596 0.27436852 53.80867765 -4.0625 54.0625 C-4.85712646 54.11172607 -5.65175293 54.16095215 -6.47045898 54.21166992 C-12.16115502 54.43470821 -17.04965732 53.60981341 -22.5625 52.1875 C-22.5625 49.2175 -22.5625 46.2475 -22.5625 43.1875 C-20.5825 43.435 -20.5825 43.435 -18.5625 43.6875 C-13.74912808 44.15709726 -8.95801979 44.36314585 -4.125 44.4375 C-3.07795898 44.4694043 -3.07795898 44.4694043 -2.00976562 44.50195312 C0.87051291 44.52158501 2.92998326 44.51601284 5.38671875 42.92578125 C7.36312949 39.65625419 6.79445049 36.9354801 6.4375 33.1875 C2.64277061 30.65768041 0.81536892 31.13393732 -3.6875 31.375 C-10.39377956 31.55080194 -15.41776668 30.72062167 -20.5625 26.1875 C-24.06743597 21.51425205 -24.14639261 16.81789305 -23.5625 11.1875 C-22.45842446 6.67082732 -20.47666107 4.65512329 -16.5625 2.1875 C-10.90443942 0.47734664 -5.88713903 -0.10122682 0 0 Z " fill="#F5F7F6" transform="translate(405.5625,61.8125)"/>
<path d="M0 0 C-1.58841041 4.94703724 -4.51258502 8.61529208 -7.625 12.6875 C-8.64232531 14.02146781 -9.65556844 15.35856196 -10.6640625 16.69921875 C-11.11217285 17.28533936 -11.5602832 17.87145996 -12.02197266 18.4753418 C-13.17997769 19.97867161 -13.17997769 19.97867161 -13 22 C-13.99 22.66 -14.98 23.32 -16 24 C-14.6469618 26.85486685 -13.11436401 29.39484009 -11.28515625 31.96875 C-10.76373047 32.70480469 -10.24230469 33.44085938 -9.70507812 34.19921875 C-9.16302734 34.95847656 -8.62097656 35.71773437 -8.0625 36.5 C-7.52431641 37.25925781 -6.98613281 38.01851562 -6.43164062 38.80078125 C-3.44778055 43.01473041 -3.44778055 43.01473041 -0.32202148 47.12304688 C1 49 1 49 1 51 C-3.34088558 52.09090318 -6.69619246 52.34215402 -11 51 C-15.21985569 46.94082784 -18.10378405 41.65020738 -20.95361328 36.58227539 C-21.92278742 34.83054018 -21.92278742 34.83054018 -24 34 C-24.38671875 34.66386719 -24.7734375 35.32773438 -25.171875 36.01171875 C-27.87528072 40.59546361 -30.55891435 44.92167627 -34 49 C-34.33 49.66 -34.66 50.32 -35 51 C-38.96 51 -42.92 51 -47 51 C-45.45373126 47.13432815 -44.39916511 44.91936903 -41.99609375 41.75 C-41.42052734 40.9765625 -40.84496094 40.203125 -40.25195312 39.40625 C-39.04090027 37.80020359 -37.82734987 36.19603748 -36.61132812 34.59375 C-36.03705078 33.8203125 -35.46277344 33.046875 -34.87109375 32.25 C-34.34443115 31.55390625 -33.81776855 30.8578125 -33.27514648 30.140625 C-31.81902407 27.69619051 -31.24893427 25.83126967 -31 23 C-32.70942017 19.97636886 -32.70942017 19.97636886 -35.1875 17.0625 C-38.3226845 13.13718823 -41.22594905 9.18803804 -44 5 C-44.5775 4.4225 -45.155 3.845 -45.75 3.25 C-46.1625 2.8375 -46.575 2.425 -47 2 C-47 1.34 -47 0.68 -47 0 C-42.81738495 -0.69013148 -39.1569849 -0.93112391 -35 0 C-31.54531232 3.2254667 -29.35629493 6.93468152 -27 11 C-25.51775066 13.29879148 -25.51775066 13.29879148 -24 15 C-23.34 15 -22.68 15 -22 15 C-19.83180038 11.86102111 -17.80501276 8.66928635 -15.80859375 5.41992188 C-15.16470703 4.40961914 -15.16470703 4.40961914 -14.5078125 3.37890625 C-14.12254395 2.7557251 -13.73727539 2.13254395 -13.34033203 1.49047852 C-9.84917486 -2.39176457 -4.57237671 -0.68585651 0 0 Z " fill="#F5F7F6" transform="translate(313,63)"/>
<path d="M0 0 C1.26457031 0.05800781 2.52914062 0.11601562 3.83203125 0.17578125 C5.10433594 0.22089844 6.37664062 0.26601562 7.6875 0.3125 C8.66332031 0.37050781 9.63914062 0.42851562 10.64453125 0.48828125 C10.67340939 3.96743066 10.69128812 7.44654956 10.70703125 10.92578125 C10.71541016 11.91900391 10.72378906 12.91222656 10.73242188 13.93554688 C10.73725586 15.3519043 10.73725586 15.3519043 10.7421875 16.796875 C10.75004272 18.10869751 10.75004272 18.10869751 10.75805664 19.44702148 C10.64453125 21.48828125 10.64453125 21.48828125 9.64453125 22.48828125 C7.45813672 22.56087071 5.26952736 22.57201908 3.08203125 22.55078125 C1.28572266 22.53724609 1.28572266 22.53724609 -0.546875 22.5234375 C-1.47371094 22.51183594 -2.40054688 22.50023437 -3.35546875 22.48828125 C-3.35546875 21.49828125 -3.35546875 20.50828125 -3.35546875 19.48828125 C0.33994711 18.53803146 2.94911539 18.53803146 6.64453125 19.48828125 C6.31453125 18.49828125 5.98453125 17.50828125 5.64453125 16.48828125 C4.98453125 16.81828125 4.32453125 17.14828125 3.64453125 17.48828125 C1.33203125 17.92578125 1.33203125 17.92578125 -1.35546875 17.48828125 C-4.63041971 14.43166035 -6.13436476 12.84254317 -6.85546875 8.42578125 C-6.02782398 3.56336822 -5.18230183 0.75411843 0 0 Z M-2.35546875 5.48828125 C-2.68880208 8.48828125 -2.68880208 8.48828125 -2.35546875 11.48828125 C-0.52843648 13.73747205 -0.52843648 13.73747205 2.14453125 13.73828125 C4.81749898 13.73747205 4.81749898 13.73747205 6.64453125 11.48828125 C6.97786458 8.48828125 6.97786458 8.48828125 6.64453125 5.48828125 C4.81749898 3.23909045 4.81749898 3.23909045 2.14453125 3.23828125 C-0.52843648 3.23909045 -0.52843648 3.23909045 -2.35546875 5.48828125 Z " fill="#8DBCD4" transform="translate(61.35546875,142.51171875)"/>
<path d="M0 0 C1.32 0 2.64 0 4 0 C4.66 2.31 5.32 4.62 6 7 C6.99 4.69 7.98 2.38 9 0 C10.65 0.33 12.3 0.66 14 1 C14 1.99 14 2.98 14 4 C14.66 4.33 15.32 4.66 16 5 C16 5.66 16 6.32 16 7 C16.99 4.69 17.98 2.38 19 0 C19.99 0 20.98 0 22 0 C21.42978066 5.3503559 20.79265639 10.67787852 20 16 C18.02 16 16.04 16 14 16 C12.50178941 12.62902617 12 10.79557881 12 7 C11.34 7 10.68 7 10 7 C9.855625 8.11375 9.71125 9.2275 9.5625 10.375 C9 14 9 14 8 16 C6.35 16 4.7 16 3 16 C2.87625 14.865625 2.7525 13.73125 2.625 12.5625 C2.41875 11.386875 2.2125 10.21125 2 9 C1.34 8.67 0.68 8.34 0 8 C0 5.36 0 2.72 0 0 Z " fill="#9FCCE0" transform="translate(368,143)"/>
<path d="M0 0 C3.32901247 2.21934164 3.75023244 3.34683329 5 7 C3.02 7.99 3.02 7.99 1 9 C0.34 7.02 -0.32 5.04 -1 3 C-3.31 3.33 -5.62 3.66 -8 4 C-8 4.99 -8 5.98 -8 7 C-6.96939453 7.34611328 -6.96939453 7.34611328 -5.91796875 7.69921875 C1.53344768 10.39622642 1.53344768 10.39622642 4.125 13.75 C4.41375 14.4925 4.7025 15.235 5 16 C3.65815246 18.54951033 2.5330894 20.58114404 0.25 22.375 C-3.14112087 23.31697802 -5.60991203 22.84752199 -9 22 C-11.4375 20.25 -11.4375 20.25 -13 18 C-13.25 15.25 -13.25 15.25 -13 13 C-11.68 13 -10.36 13 -9 13 C-9 14.65 -9 16.3 -9 18 C-6.36 18 -3.72 18 -1 18 C-0.67 16.68 -0.34 15.36 0 14 C-0.68707031 13.84144531 -1.37414062 13.68289062 -2.08203125 13.51953125 C-9.45140017 11.61129695 -9.45140017 11.61129695 -12.1875 8.5625 C-13 6 -13 6 -13 3.875 C-10.06720193 -1.62399638 -5.44747143 -1.31142831 0 0 Z " fill="#99C7DE" transform="translate(140,137)"/>
<path d="M0 0 C2.475 0.495 2.475 0.495 5 1 C5.66 3.31 6.32 5.62 7 8 C7.99 5.36 8.98 2.72 10 0 C11.98 0 13.96 0 16 0 C16.33 2.64 16.66 5.28 17 8 C17.99 5.36 18.98 2.72 20 0 C20.99 0 21.98 0 23 0 C22.52013969 5.56890517 21.70084819 10.67067568 20 16 C18.35 16 16.7 16 15 16 C14.01 13.36 13.02 10.72 12 8 C11.01 10.64 10.02 13.28 9 16 C7.35 16 5.7 16 4 16 C2.68 10.72 1.36 5.44 0 0 Z " fill="#9EC8E1" transform="translate(227,143)"/>
<path d="M0 0 C2.22808159 -0.10853983 4.45769932 -0.18583307 6.6875 -0.25 C7.92886719 -0.29640625 9.17023437 -0.3428125 10.44921875 -0.390625 C14.66230648 0.072861 16.26349802 0.76832148 19 4 C19.4453125 7.3125 19.4453125 7.3125 19.125 11 C19.00511719 12.8253125 19.00511719 12.8253125 18.8828125 14.6875 C18 18 18 18 15.85546875 20.421875 C12.36506866 22.35090597 10.14893206 22.41005786 6.1875 22.25 C5.02605469 22.21390625 3.86460938 22.1778125 2.66796875 22.140625 C1.78753906 22.09421875 0.90710938 22.0478125 0 22 C0 21.01 0 20.02 0 19 C0.99 19 1.98 19 3 19 C3 13.72 3 8.44 3 3 C2.01 3 1.02 3 0 3 C0 2.01 0 1.02 0 0 Z M6 3 C6 8.28 6 13.56 6 19 C9.465 18.505 9.465 18.505 13 18 C15.48887372 13.31506124 14.85687773 10.0555786 14 5 C11.09399739 3.74335022 9.20395416 3 6 3 Z " fill="#88BEDA" transform="translate(28,137)"/>
<path d="M0 0 C2.0625 -0.061875 4.125 -0.12375 6.25 -0.1875 C7.99023438 -0.23970703 7.99023438 -0.23970703 9.765625 -0.29296875 C13.27184933 0.02462403 14.64183615 0.4128882 17 3 C17.76392651 6.05008893 17.54653689 8.91597042 17 12 C14.89753702 15.23455844 13.59995098 15.84401275 9.875 16.8125 C7 17 7 17 5 16 C4.67 17.98 4.34 19.96 4 22 C2.68 22.33 1.36 22.66 0 23 C0 15.41 0 7.82 0 0 Z M6 3 C3.64985842 5.837578 3.64985842 5.837578 4.3125 9.125 C4.70644321 11.88086422 4.70644321 11.88086422 6 13 C7.99958364 13.04080783 10.00045254 13.04254356 12 13 C12.8403457 9.63861721 13.17718642 7.29612199 12 4 C10.94570314 2.73527935 10.94570314 2.73527935 8.5625 2.75 C7.716875 2.8325 6.87125 2.915 6 3 Z " fill="#96C9E1" transform="translate(146,143)"/>
<path d="M0 0 C1.98 0 3.96 0 6 0 C12 15.42857143 12 15.42857143 12 22 C10.0625 21.6875 10.0625 21.6875 8 21 C7.67 20.01 7.34 19.02 7 18 C4.36 17.67 1.72 17.34 -1 17 C-1.33 18.65 -1.66 20.3 -2 22 C-3.32 22 -4.64 22 -6 22 C-5.40421223 16.73378394 -4.18691204 12.05591981 -2.4375 7.0625 C-2.20353516 6.37865234 -1.96957031 5.69480469 -1.72851562 4.99023438 C-1.15788171 3.32491499 -0.57972902 1.66217507 0 0 Z M2 6 C1.34 8.31 0.68 10.62 0 13 C1.98 13 3.96 13 6 13 C5.34 10.69 4.68 8.38 4 6 C3.34 6 2.68 6 2 6 Z " fill="#9CC9E0" transform="translate(304,137)"/>
<path d="M0 0 C1.299375 0.10054687 1.299375 0.10054687 2.625 0.203125 C5.37314149 0.83592074 6.35610785 1.48036826 8 3.75 C8.65449688 9.85863758 8.65449688 9.85863758 6.76953125 12.42578125 C4.55607792 14.08220659 3.05109255 14.23905126 0.3125 14.4375 C-0.89986328 14.53611328 -0.89986328 14.53611328 -2.13671875 14.63671875 C-2.75160156 14.67410156 -3.36648438 14.71148437 -4 14.75 C-4 17.39 -4 20.03 -4 22.75 C-5.65 22.42 -7.3 22.09 -9 21.75 C-8.67 14.82 -8.34 7.89 -8 0.75 C-4.90341291 -0.2821957 -3.20396973 -0.28606873 0 0 Z M-4 3.75 C-4 6.06 -4 8.37 -4 10.75 C-1.66705225 10.79241723 0.66702567 10.79092937 3 10.75 C4.28322547 9.6904123 4.28322547 9.6904123 4.125 7.25 C4.28322547 4.8095877 4.28322547 4.8095877 3 3.75 C0.66702567 3.70907063 -1.66705225 3.70758277 -4 3.75 Z " fill="#A2D3E9" transform="translate(341,136.25)"/>
<path d="M0 0 C0.99 0 1.98 0 3 0 C3.19617816 2.54126172 3.38217248 5.08260459 3.5625 7.625 C3.61857422 8.33785156 3.67464844 9.05070313 3.73242188 9.78515625 C4.02495798 14.03668104 3.89547939 17.79456347 3 22 C-6.79485384 23.73253982 -6.79485384 23.73253982 -11.1875 21.0625 C-13.68105701 16.84924851 -13.69304585 14.85132092 -13 10 C-11.5 7.5 -11.5 7.5 -9 6 C-6.24158426 5.68415087 -3.79398546 5.8137343 -1 6 C-0.67 5.34 -0.34 4.68 0 4 C-0.66 3.67 -1.32 3.34 -2 3 C-1.34 3 -0.68 3 0 3 C0 2.01 0 1.02 0 0 Z M-9 11 C-9.25003964 14.54178598 -9.25003964 14.54178598 -9 18 C-7.88741409 19.32745166 -7.88741409 19.32745166 -5.0625 19.25 C-4.051875 19.1675 -3.04125 19.085 -2 19 C0.35014158 16.162422 0.35014158 16.162422 -0.3125 12.875 C-0.70644321 10.11913578 -0.70644321 10.11913578 -2 9 C-5.961168 8.60909667 -5.961168 8.60909667 -9 11 Z " fill="#A1CFE4" transform="translate(214,137)"/>
<path d="M0 0 C7.71243399 -0.90734518 7.71243399 -0.90734518 10.74609375 1.23046875 C12.125 2.8125 12.125 2.8125 14 6 C13.67 6.99 13.34 7.98 13 9 C7.555 9.495 7.555 9.495 2 10 C2 10.66 2 11.32 2 12 C4.97 12.495 4.97 12.495 8 13 C8.33 12.01 8.66 11.02 9 10 C10.32 10 11.64 10 13 10 C11.92598892 12.91517292 11.22189824 14.77810176 9 17 C4.36987381 17.51445847 1.73114338 16.77170651 -2 14 C-3.12256131 11.75487738 -3.13413762 10.48543351 -3.125 8 C-3.12886719 6.948125 -3.12886719 6.948125 -3.1328125 5.875 C-3 4 -3 4 -2 2 C-1.34 2 -0.68 2 0 2 C0 1.34 0 0.68 0 0 Z M1 4 C1 4.66 1 5.32 1 6 C3.64 6 6.28 6 9 6 C8.34 5.01 7.68 4.02 7 3 C3.2236068 2.7018576 3.2236068 2.7018576 1 4 Z " fill="#9FC8DE" transform="translate(395,143)"/>
<path d="M0 0 C2.5 1.625 2.5 1.625 4 4 C4 5.98 4 7.96 4 10 C0.04 9.67 -3.92 9.34 -8 9 C-7.67 10.32 -7.34 11.64 -7 13 C-4.02934491 12.65772428 -4.02934491 12.65772428 -1 12 C-0.67 11.34 -0.34 10.68 0 10 C1.32 10.33 2.64 10.66 4 11 C2.63016497 14.16115776 2.0109362 14.9927092 -1 17 C-4.76730436 16.86300711 -7.24668225 16.48289599 -10.4375 14.4375 C-12.66872394 10.95679065 -12.79126072 8.02224201 -12 4 C-9.16677389 -0.72204352 -5.06815091 -1.0177844 0 0 Z M-6 3 C-6.33 3.99 -6.66 4.98 -7 6 C-4.69 6 -2.38 6 0 6 C0 5.34 0 4.68 0 4 C-2.97 3.505 -2.97 3.505 -6 3 Z " fill="#9BCEE9" transform="translate(177,143)"/>
<path d="M0 0 C2 2 2 2 2.1953125 4.6015625 C2.17210938 5.59929687 2.14890625 6.59703125 2.125 7.625 C2.10695313 8.62789062 2.08890625 9.63078125 2.0703125 10.6640625 C2.03550781 11.82035156 2.03550781 11.82035156 2 13 C2.99 13 3.98 13 5 13 C5 13.99 5 14.98 5 16 C2.9190156 16.24959784 0.83499188 16.47394907 -1.25 16.6875 C-2.41015625 16.81511719 -3.5703125 16.94273437 -4.765625 17.07421875 C-8 17 -8 17 -10.3984375 15.6796875 C-12 14 -12 14 -12.375 11.4375 C-12 9 -12 9 -10 7 C-10.2784375 6.0409375 -10.2784375 6.0409375 -10.5625 5.0625 C-11 3 -11 3 -10.0625 1.25 C-6.69794036 -0.78912706 -3.89145769 -0.30884585 0 0 Z M-6 3 C-6.99 4.485 -6.99 4.485 -8 6 C-5.69 6 -3.38 6 -1 6 C-1.33 5.01 -1.66 4.02 -2 3 C-3.32 3 -4.64 3 -6 3 Z M-6 9 C-6.66 10.32 -7.32 11.64 -8 13 C-6.35 13 -4.7 13 -3 13 C-2.34 11.68 -1.68 10.36 -1 9 C-2.65 9 -4.3 9 -6 9 Z " fill="#92C0DC" transform="translate(107,143)"/>
<path d="M0 0 C2.5 1.6875 2.5 1.6875 4 4 C4 5.65 4 7.3 4 9 C0.04 9 -3.92 9 -8 9 C-8 9.99 -8 10.98 -8 12 C-2.67829506 12.29562367 -2.67829506 12.29562367 2 10 C2.66 10.33 3.32 10.66 4 11 C2.63016497 14.16115776 2.0109362 14.9927092 -1 17 C-4.82226381 16.86100859 -7.23273278 16.54516355 -10.375 14.3125 C-12.46137611 11.34342631 -13.07294492 9.64724582 -13 6 C-9.51247764 -0.07503895 -6.87454066 -1.09119693 0 0 Z M-6 3 C-6.99 4.485 -6.99 4.485 -8 6 C-5.36 6 -2.72 6 0 6 C0 5.34 0 4.68 0 4 C-2.97 3.505 -2.97 3.505 -6 3 Z " fill="#94C4DB" transform="translate(195,143)"/>
<path d="M0 0 C1.32 0 2.64 0 4 0 C4 2.31 4 4.62 4 7 C4.66 6.67 5.32 6.34 6 6 C9.87567003 5.483244 11.57762527 5.73938581 14.9375 7.8125 C18.00215803 12.54878968 16.95163998 16.61993637 16 22 C14.68 22 13.36 22 12 22 C11.67 18.04 11.34 14.08 11 10 C9.02 10 7.04 10 5 10 C5.33 13.63 5.66 17.26 6 21 C4.35 21.33 2.7 21.66 1 22 C0.67 14.74 0.34 7.48 0 0 Z " fill="#A9D0E0" transform="translate(273,137)"/>
<path d="M0 0 C2.5 1.5 2.5 1.5 4 4 C4.67595245 7.79154935 4.47842566 10.90243524 2.9375 14.4375 C0.01717965 16.79259706 -2.29462195 16.93611417 -6 17 C-8.94755732 15.65437601 -10.54277272 14.91445456 -12 12 C-12.56872038 4.9478673 -12.56872038 4.9478673 -10.5 1.5 C-6.96411027 -0.62153384 -4.02098277 -0.791013 0 0 Z M-6 3 C-7.75651531 4.61694804 -7.75651531 4.61694804 -9 7 C-8.28776153 10.22174544 -8.28776153 10.22174544 -7 13 C-4.08365871 13.2502157 -4.08365871 13.2502157 -1 13 C1.36692966 10.15173402 1.36692966 10.15173402 0.625 6.8125 C0.41875 5.884375 0.2125 4.95625 0 4 C-2.97 3.505 -2.97 3.505 -6 3 Z " fill="#9ECBE2" transform="translate(362,143)"/>
<path d="M0 0 C1.32 0 2.64 0 4 0 C4 1.65 4 3.3 4 5 C5.65 5 7.3 5 9 5 C8.67 6.65 8.34 8.3 8 10 C7.01 9.67 6.02 9.34 5 9 C4.67 11.97 4.34 14.94 4 18 C5.32 18 6.64 18 8 18 C8 18.99 8 19.98 8 21 C5.66705225 21.04241723 3.33297433 21.04092937 1 21 C0 20 0 20 -0.09765625 17.27734375 C-0.08605469 16.17519531 -0.07445312 15.07304687 -0.0625 13.9375 C-0.05347656 12.83277344 -0.04445313 11.72804687 -0.03515625 10.58984375 C-0.02355469 9.73519531 -0.01195312 8.88054687 0 8 C-1.65 8 -3.3 8 -5 8 C-5 7.01 -5 6.02 -5 5 C-3.35 5 -1.7 5 0 5 C0 3.35 0 1.7 0 0 Z " fill="#9CCFE5" transform="translate(263,138)"/>
<path d="M0 0 C1.32 0 2.64 0 4 0 C4 1.65 4 3.3 4 5 C5.65 5 7.3 5 9 5 C8.67 6.32 8.34 7.64 8 9 C7.01 9 6.02 9 5 9 C4.67 11.97 4.34 14.94 4 18 C5.32 18 6.64 18 8 18 C8 18.99 8 19.98 8 21 C5.66705225 21.04241723 3.33297433 21.04092937 1 21 C0 20 0 20 -0.09765625 17.27734375 C-0.08605469 16.17519531 -0.07445313 15.07304687 -0.0625 13.9375 C-0.05347656 12.83277344 -0.04445313 11.72804687 -0.03515625 10.58984375 C-0.02355469 9.73519531 -0.01195313 8.88054687 0 8 C-0.99 8.33 -1.98 8.66 -3 9 C-3.66 8.67 -4.32 8.34 -5 8 C-5 7.01 -5 6.02 -5 5 C-3.35 5 -1.7 5 0 5 C0 3.35 0 1.7 0 0 Z " fill="#98CEE6" transform="translate(85,138)"/>
<path d="M0 0 C2.28678054 -0.00359557 4.52087594 0.09387686 6.796875 0.30859375 C7.456875 1.95859375 8.116875 3.60859375 8.796875 5.30859375 C6.156875 4.97859375 3.516875 4.64859375 0.796875 4.30859375 C-0.35483623 8.33958306 -0.20668505 10.60200766 1.796875 14.30859375 C2.786875 14.96859375 3.776875 15.62859375 4.796875 16.30859375 C3.146875 16.63859375 1.496875 16.96859375 -0.203125 17.30859375 C-5.05534175 12.21376616 -5.05534175 12.21376616 -5.703125 8.24609375 C-4.40454717 0.61694898 -4.40454717 0.61694898 0 0 Z " fill="#96CCE6" transform="translate(60.203125,142.69140625)"/>
<path d="M0 0 C1.32 0 2.64 0 4 0 C4.70776992 7.35575165 5.14715692 14.6094524 5 22 C3.35 22 1.7 22 0 22 C0 14.74 0 7.48 0 0 Z " fill="#9CBED1" transform="translate(318,137)"/>
<path d="M0 0 C1.32 0 2.64 0 4 0 C5.05476879 4.95350675 4.95554228 9.37839349 4.5625 14.375 C4.51029297 15.11105469 4.45808594 15.84710938 4.40429688 16.60546875 C4.27582277 18.40410629 4.13879051 20.20212909 4 22 C2.68 22 1.36 22 0 22 C0 14.74 0 7.48 0 0 Z " fill="#95CCE7" transform="translate(113,137)"/>
<path d="M0 0 C3.3 0 6.6 0 10 0 C9.67 1.32 9.34 2.64 9 4 C7.35 4 5.7 4 4 4 C4 7.96 4 11.92 4 16 C2.35 16 0.7 16 -1 16 C-0.67 10.72 -0.34 5.44 0 0 Z " fill="#A7CFE4" transform="translate(410,143)"/>
<path d="M0 0 C1.32 0 2.64 0 4 0 C3.67 0.99 3.34 1.98 3 3 C3 2.34 3 1.68 3 1 C2.34 1 1.68 1 1 1 C1.01160156 1.61488281 1.02320313 2.22976562 1.03515625 2.86328125 C1.04869141 4.07564453 1.04869141 4.07564453 1.0625 5.3125 C1.07410156 6.11300781 1.08570313 6.91351563 1.09765625 7.73828125 C1 10 1 10 0 13 C1.32 13.66 2.64 14.32 4 15 C2.02 15.33 0.04 15.66 -2 16 C-2.33 17.65 -2.66 19.3 -3 21 C-4.32 21 -5.64 21 -7 21 C-6.33844731 13.39214401 -3.4620342 6.7532954 0 0 Z " fill="#9ACAE0" transform="translate(305,138)"/>
<path d="M0 0 C0.33 0.66 0.66 1.32 1 2 C0.67 2.99 0.34 3.98 0 5 C0.66 4.67 1.32 4.34 2 4 C4.04055005 3.92934383 6.08334257 3.91578024 8.125 3.9375 C9.22070312 3.94652344 10.31640625 3.95554688 11.4453125 3.96484375 C12.28835937 3.97644531 13.13140625 3.98804688 14 4 C14 4.33 14 4.66 14 5 C10.37 5 6.74 5 3 5 C3 5.99 3 6.98 3 8 C8.32170494 8.29562367 8.32170494 8.29562367 13 6 C13.66 6.33 14.32 6.66 15 7 C13.63016497 10.16115776 13.0109362 10.9927092 10 13 C6.17773619 12.86100859 3.76726722 12.54516355 0.625 10.3125 C-1.36307084 7.48332226 -1.85043468 5.44000236 -2 2 C-1.34 1.34 -0.68 0.68 0 0 Z " fill="#9DCFE7" transform="translate(184,147)"/>
<path d="M0 0 C4.62 0 9.24 0 14 0 C14.33 1.65 14.66 3.3 15 5 C12.36 4.67 9.72 4.34 7 4 C7.02320313 4.98742187 7.04640625 5.97484375 7.0703125 6.9921875 C7.08835937 8.27351562 7.10640625 9.55484375 7.125 10.875 C7.14820313 12.15117187 7.17140625 13.42734375 7.1953125 14.7421875 C7 18 7 18 5 20 C4.93941406 19.10796875 4.87882812 18.2159375 4.81640625 17.296875 C4.73261719 16.12640625 4.64882813 14.9559375 4.5625 13.75 C4.48128906 12.58984375 4.40007813 11.4296875 4.31640625 10.234375 C4.06752213 7.69022624 3.71885058 5.44046752 3 3 C2.01 3 1.02 3 0 3 C0 2.01 0 1.02 0 0 Z " fill="#98D1E7" transform="translate(28,137)"/>
<path d="M0 0 C4.29 0 8.58 0 13 0 C13 0.33 13 0.66 13 1 C9.7 1.33 6.4 1.66 3 2 C3 2.66 3 3.32 3 4 C5.97 4.495 5.97 4.495 9 5 C9.33 4.01 9.66 3.02 10 2 C11.32 2 12.64 2 14 2 C12.92598892 4.91517292 12.22189824 6.77810176 10 9 C5.39264744 9.51192806 2.67591096 8.83570274 -1 6 C-1.33 5.01 -1.66 4.02 -2 3 C-1.34 3 -0.68 3 0 3 C0 2.01 0 1.02 0 0 Z " fill="#AAD3E9" transform="translate(394,151)"/>
<path d="M0 0 C6.33807369 0.35875889 6.33807369 0.35875889 9 2.9375 C10.46195328 7.41473191 9.7396421 11.41065446 9 16 C7.68 16 6.36 16 5 16 C4.67 12.04 4.34 8.08 4 4 C2.68 3.67 1.36 3.34 0 3 C0 2.01 0 1.02 0 0 Z " fill="#9DD0EA" transform="translate(280,143)"/>
<path d="M0 0 C2.3828125 0.0234375 2.3828125 0.0234375 5.125 0.375 C6.03507812 0.48585937 6.94515625 0.59671875 7.8828125 0.7109375 C8.93082031 0.85402344 8.93082031 0.85402344 10 1 C9.67 3.64 9.34 6.28 9 9 C2.71428571 10.32967033 2.71428571 10.32967033 -0.4375 8.875 C-2 7 -2 7 -2.375 4.4375 C-2 2 -2 2 0 0 Z M4 2 C3.34 3.32 2.68 4.64 2 6 C3.65 6 5.3 6 7 6 C7.66 4.68 8.32 3.36 9 2 C7.35 2 5.7 2 4 2 Z " fill="#93C9E0" transform="translate(97,150)"/>
<path d="M0 0 C1.875 0.36328125 1.875 0.36328125 3.875 2.23828125 C4.96409189 4.55260151 4.875 5.85340975 4.875 8.36328125 C0.915 8.36328125 -3.045 8.36328125 -7.125 8.36328125 C-7.785 6.71328125 -8.445 5.06328125 -9.125 3.36328125 C-6.74936284 -0.20017449 -3.96296641 -0.13841243 0 0 Z M-4.125 3.36328125 C-4.455 4.35328125 -4.785 5.34328125 -5.125 6.36328125 C-2.815 6.36328125 -0.505 6.36328125 1.875 6.36328125 C1.875 5.70328125 1.875 5.04328125 1.875 4.36328125 C-1.095 3.86828125 -1.095 3.86828125 -4.125 3.36328125 Z " fill="#9FCCDE" transform="translate(175.125,142.63671875)"/>
<path d="M0 0 C3.63 0 7.26 0 11 0 C10.67 0.99 10.34 1.98 10 3 C7.9375 3.6875 7.9375 3.6875 6 4 C5.04975021 7.69541586 5.04975021 10.30458414 6 14 C5.01 13.34 4.02 12.68 3 12 C2.67 14.97 2.34 17.94 2 21 C1.67 21 1.34 21 1 21 C0.67 14.07 0.34 7.14 0 0 Z " fill="#A7D5E9" transform="translate(146,143)"/>
<path d="M0 0 C3.63 0.33 7.26 0.66 11 1 C10.67 1.66 10.34 2.32 10 3 C8.02 3 6.04 3 4 3 C3.34 5.64 2.68 8.28 2 11 C4.64 11 7.28 11 10 11 C10 11.33 10 11.66 10 12 C7.69 12.33 5.38 12.66 3 13 C2.67 15.64 2.34 18.28 2 21 C1.34 20.67 0.68 20.34 0 20 C0 13.4 0 6.8 0 0 Z " fill="#8FC3DE" transform="translate(333,137)"/>
<path d="M0 0 C1.32 0 2.64 0 4 0 C4 5.28 4 10.56 4 16 C2.68 16 1.36 16 0 16 C-0.19672365 14.27185839 -0.38196799 12.54240803 -0.5625 10.8125 C-0.71912109 9.36810547 -0.71912109 9.36810547 -0.87890625 7.89453125 C-0.99758751 5.05766623 -0.67765639 2.74576329 0 0 Z " fill="#8DC2E1" transform="translate(75,143)"/>
<path d="M0 0 C0.33 0 0.66 0 1 0 C1.00257813 0.61488281 1.00515625 1.22976562 1.0078125 1.86328125 C1.12782055 4.37144958 1.31774275 6.57991767 2 9 C4.90251302 11.16247221 4.90251302 11.16247221 8 12 C7.01 12.66 6.02 13.32 5 14 C4.26656572 17.06556598 4.26656572 17.06556598 4 20 C2.68 20.33 1.36 20.66 0 21 C0 14.07 0 7.14 0 0 Z " fill="#99C4D9" transform="translate(146,145)"/>
<path d="M0 0 C0.99 0 1.98 0 3 0 C3.91397824 5.68697571 3.91397824 10.31302429 3 16 C2.01 16 1.02 16 0 16 C0 10.72 0 5.44 0 0 Z " fill="#8DC7DE" transform="translate(49,143)"/>
<path d="M0 0 C0.99 0 1.98 0 3 0 C3.9360342 3.79267192 3.98276252 6.93674565 3.5625 10.8125 C3.40974609 12.27623047 3.40974609 12.27623047 3.25390625 13.76953125 C3.17011719 14.50558594 3.08632813 15.24164063 3 16 C2.01 16 1.02 16 0 16 C0 10.72 0 5.44 0 0 Z " fill="#9DCAE2" transform="translate(253,143)"/>
<path d="M0 0 C1.32 0 2.64 0 4 0 C4 1.65 4 3.3 4 5 C5.65 5 7.3 5 9 5 C8.67 5.99 8.34 6.98 8 8 C3.45194365 8.17835515 0.1205746 7.99785435 -4 6 C-2.68 5.67 -1.36 5.34 0 5 C0 3.35 0 1.7 0 0 Z " fill="#83BBD7" transform="translate(85,138)"/>
<path d="M0 0 C0.66 0 1.32 0 2 0 C2.33 3.3 2.66 6.6 3 10 C4.65 10 6.3 10 8 10 C8 10.99 8 11.98 8 13 C5.66705225 13.04241723 3.33297433 13.04092937 1 13 C0 12 0 12 -0.09765625 9.27734375 C-0.08605469 8.17519531 -0.07445312 7.07304687 -0.0625 5.9375 C-0.05347656 4.83277344 -0.04445313 3.72804687 -0.03515625 2.58984375 C-0.02355469 1.73519531 -0.01195312 0.88054687 0 0 Z " fill="#93C5DF" transform="translate(263,146)"/>
<path d="M0 0 C1.32 0.33 2.64 0.66 4 1 C2.63016497 4.16115776 2.0109362 4.9927092 -1 7 C-3.6875 7.125 -3.6875 7.125 -6 7 C-6.33 5.68 -6.66 4.36 -7 3 C-5.5459375 2.814375 -5.5459375 2.814375 -4.0625 2.625 C-2.5465625 2.315625 -2.5465625 2.315625 -1 2 C-0.67 1.34 -0.34 0.68 0 0 Z " fill="#A0D1E5" transform="translate(177,153)"/>
<path d="M0 0 C0.99 0.33 1.98 0.66 3 1 C3 1.66 3 2.32 3 3 C4.918125 2.938125 4.918125 2.938125 6.875 2.875 C9.0546875 2.8046875 9.0546875 2.8046875 11 3 C11.66 3.66 12.32 4.32 13 5 C9.04 5 5.08 5 1 5 C1 5.99 1 6.98 1 8 C0.34 8 -0.32 8 -1 8 C-1.04241723 5.66705225 -1.04092937 3.33297433 -1 1 C-0.67 0.67 -0.34 0.34 0 0 Z " fill="#93BFD6" transform="translate(393,146)"/>
<path d="M0 0 C1.98 0 3.96 0 6 0 C6 1.65 6 3.3 6 5 C5.34 5 4.68 5 4 5 C3.67 5.66 3.34 6.32 3 7 C2.01 7 1.02 7 0 7 C-0.66 6.01 -1.32 5.02 -2 4 C-1.34 2.68 -0.68 1.36 0 0 Z " fill="#A3D4E9" transform="translate(237,143)"/>
<path d="M0 0 C0.94875 0.04125 1.8975 0.0825 2.875 0.125 C3.205 1.445 3.535 2.765 3.875 4.125 C2.225 4.125 0.575 4.125 -1.125 4.125 C-2.115 6.435 -3.105 8.745 -4.125 11.125 C-4.455 11.125 -4.785 11.125 -5.125 11.125 C-5.125 9.475 -5.125 7.825 -5.125 6.125 C-5.785 6.125 -6.445 6.125 -7.125 6.125 C-4.34782609 0.17391304 -4.34782609 0.17391304 0 0 Z " fill="#A0CAE3" transform="translate(357.125,142.875)"/>
<path d="M0 0 C3.96 0 7.92 0 12 0 C12.66 1.32 13.32 2.64 14 4 C13.01 4.495 13.01 4.495 12 5 C11.67 4.34 11.34 3.68 11 3 C6.57335436 2.69504515 6.57335436 2.69504515 2.625 4.5 C2.08875 4.995 1.5525 5.49 1 6 C0.67 4.02 0.34 2.04 0 0 Z " fill="#90C4E3" transform="translate(28,46)"/>
<path d="M0 0 C2.97 0 5.94 0 9 0 C9.33 2.31 9.66 4.62 10 7 C10.99 7 11.98 7 13 7 C13 7.99 13 8.98 13 10 C11.35 10 9.7 10 8 10 C7.01879536 6.94736336 7.01879536 5.05263664 8 2 C5.69 2 3.38 2 1 2 C0.67 1.34 0.34 0.68 0 0 Z " fill="#8DBDD9" transform="translate(99,149)"/>
<path d="M0 0 C1.32 0 2.64 0 4 0 C4.33 2.64 4.66 5.28 5 8 C4.01 8.66 3.02 9.32 2 10 C0 8 0 8 -0.1953125 6.0546875 C-0.13020833 4.03645833 -0.06510417 2.01822917 0 0 Z " fill="#AAD1E2" transform="translate(368,143)"/>
<path d="M0 0 C0.33 0.99 0.66 1.98 1 3 C-2.96 3 -6.92 3 -11 3 C-11 2.01 -11 1.02 -11 0 C-7.18243176 -1.37432457 -3.92744671 -0.67975039 0 0 Z " fill="#8FB1C6" transform="translate(69,162)"/>
<path d="M0 0 C0.99 0.33 1.98 0.66 3 1 C3 2.66666667 3 4.33333333 3 6 C-0.96 6 -4.92 6 -9 6 C-9.66 4.35 -10.32 2.7 -11 1 C-9.515 1.99 -9.515 1.99 -8 3 C-5.9507906 3.45139459 -5.9507906 3.45139459 -3.8125 3.625 C-2.554375 3.74875 -1.29625 3.8725 0 4 C0 2.68 0 1.36 0 0 Z " fill="#8EBED8" transform="translate(177,145)"/>
<path d="M0 0 C2.97 0 5.94 0 9 0 C9.66 1.65 10.32 3.3 11 5 C9.046875 4.73958333 7.09375 4.47916667 5.140625 4.21875 C2.69541605 3.93222643 2.69541605 3.93222643 -1 4 C-0.67 2.68 -0.34 1.36 0 0 Z " fill="#9FCAE0" transform="translate(58,143)"/>
<path d="M0 0 C1.134375 0.020625 2.26875 0.04125 3.4375 0.0625 C3.4375 0.7225 3.4375 1.3825 3.4375 2.0625 C1.4575 2.0625 -0.5225 2.0625 -2.5625 2.0625 C-2.5625 4.7025 -2.5625 7.3425 -2.5625 10.0625 C-4.2125 9.7325 -5.8625 9.4025 -7.5625 9.0625 C-6.9025 8.7325 -6.2425 8.4025 -5.5625 8.0625 C-5.18849214 5.73534 -4.85485267 3.40132138 -4.5625 1.0625 C-3.5625 0.0625 -3.5625 0.0625 0 0 Z " fill="#AAE0F2" transform="translate(339.5625,148.9375)"/>
<path d="M0 0 C1.98 0 3.96 0 6 0 C6.66 1.98 7.32 3.96 8 6 C5.37886292 6 3.49064888 5.68707555 1 5 C1.33 4.01 1.66 3.02 2 2 C2.99 1.67 3.98 1.34 5 1 C3.68 1 2.36 1 1 1 C0.67 2.32 0.34 3.64 0 5 C-0.33 4.34 -0.66 3.68 -1 3 C-0.67 2.01 -0.34 1.02 0 0 Z " fill="#B0DEEF" transform="translate(304,137)"/>
<path d="M0 0 C2.375 1.1875 2.375 1.1875 3.375 3.1875 C3.414992 5.18710012 3.41846799 7.18797242 3.375 9.1875 C2.385 9.6825 2.385 9.6825 1.375 10.1875 C1.375 8.2075 1.375 6.2275 1.375 4.1875 C0.385 3.8575 -0.605 3.5275 -1.625 3.1875 C-1.625 2.5275 -1.625 1.8675 -1.625 1.1875 C-2.945 0.8575 -4.265 0.5275 -5.625 0.1875 C-2.625 -0.8125 -2.625 -0.8125 0 0 Z " fill="#96BFD5" transform="translate(362.625,143.8125)"/>
<path d="M0 0 C1.2065625 0.0309375 1.2065625 0.0309375 2.4375 0.0625 C2.4375 1.0525 2.4375 2.0425 2.4375 3.0625 C1.4475 2.7325 0.4575 2.4025 -0.5625 2.0625 C-0.61148437 2.70058594 -0.66046875 3.33867187 -0.7109375 3.99609375 C-0.78570312 4.82238281 -0.86046875 5.64867187 -0.9375 6.5 C-1.04191406 7.73556641 -1.04191406 7.73556641 -1.1484375 8.99609375 C-1.28507812 9.67800781 -1.42171875 10.35992187 -1.5625 11.0625 C-2.5525 11.5575 -2.5525 11.5575 -3.5625 12.0625 C-3.58937279 10.25007948 -3.60883715 8.43754767 -3.625 6.625 C-3.63660156 5.61566406 -3.64820313 4.60632813 -3.66015625 3.56640625 C-3.52706167 0.15386128 -3.42090834 0.08343679 0 0 Z " fill="#B2E7F7" transform="translate(268.5625,144.9375)"/>
<path d="M0 0 C0.66 0.66 1.32 1.32 2 2 C1.67 3.32 1.34 4.64 1 6 C6.445 5.505 6.445 5.505 12 5 C12 5.66 12 6.32 12 7 C7.38 7.33 2.76 7.66 -2 8 C-2 2 -2 2 0 0 Z " fill="#89BFDB" transform="translate(186,144)"/>
<path d="M0 0 C0.66 0 1.32 0 2 0 C2 2.97 2 5.94 2 9 C1.01 9.495 1.01 9.495 0 10 C-0.99 9.67 -1.98 9.34 -3 9 C-2.01 6.03 -1.02 3.06 0 0 Z " fill="#90C1D9" transform="translate(214,149)"/>
<path d="M0 0 C-1.14099526 3.42298577 -2.00085621 4.14758766 -5 6 C-5.99 6 -6.98 6 -8 6 C-7.625 3.5625 -7.625 3.5625 -7 1 C-4.53721199 -0.231394 -2.7204945 -0.07159196 0 0 Z " fill="#9AC7DF" transform="translate(104,143)"/>
<path d="M0 0 C2.31 0 4.62 0 7 0 C6.67 1.32 6.34 2.64 6 4 C4.02 4.33 2.04 4.66 0 5 C0 3.35 0 1.7 0 0 Z " fill="#A4D8EA" transform="translate(413,143)"/>
<path d="M0 0 C1.93166016 0.01740234 1.93166016 0.01740234 3.90234375 0.03515625 C5.19269531 0.04417969 6.48304687 0.05320312 7.8125 0.0625 C8.81152344 0.07410156 9.81054688 0.08570312 10.83984375 0.09765625 C8.28646651 2.65103349 6.88709957 2.5302702 3.33984375 2.84765625 C2.36015625 2.945625 1.38046875 3.04359375 0.37109375 3.14453125 C-2.16015625 3.09765625 -2.16015625 3.09765625 -4.16015625 1.09765625 C-3.16015625 0.09765625 -3.16015625 0.09765625 0 0 Z " fill="#FEFEFE" transform="translate(118.16015625,81.90234375)"/>
<path d="M0 0 C1.8871875 0.0309375 1.8871875 0.0309375 3.8125 0.0625 C2.8225 1.5475 2.8225 1.5475 1.8125 3.0625 C-0.3515625 3.35546875 -0.3515625 3.35546875 -2.8125 3.25 C-3.62976562 3.22292969 -4.44703125 3.19585937 -5.2890625 3.16796875 C-5.91554688 3.13316406 -6.54203125 3.09835938 -7.1875 3.0625 C-7.1875 2.4025 -7.1875 1.7425 -7.1875 1.0625 C-4.43671116 0.14557039 -2.82801087 -0.04636083 0 0 Z " fill="#92C9E6" transform="translate(36.1875,155.9375)"/>
<path d="M0 0 C2.97 0.495 2.97 0.495 6 1 C6 1.66 6 2.32 6 3 C5.01 3 4.02 3 3 3 C3 4.32 3 5.64 3 7 C1.68 6.67 0.36 6.34 -1 6 C-0.67 4.02 -0.34 2.04 0 0 Z " fill="#A6D0E6" transform="translate(375,147)"/>
<path d="M0 0 C1.81325551 0.11351517 3.62563357 0.24112961 5.4375 0.375 C6.95150391 0.47941406 6.95150391 0.47941406 8.49609375 0.5859375 C9.73552734 0.79089844 9.73552734 0.79089844 11 1 C11.33 1.66 11.66 2.32 12 3 C8.37 3 4.74 3 1 3 C0.67 3.66 0.34 4.32 0 5 C0 3.35 0 1.7 0 0 Z " fill="#9DCDE6" transform="translate(82,45)"/>
<path d="M0 0 C1.32 0.33 2.64 0.66 4 1 C3.67 2.65 3.34 4.3 3 6 C1.0625 5.6875 1.0625 5.6875 -1 5 C-1.33 4.01 -1.66 3.02 -2 2 C-1.34 2 -0.68 2 0 2 C0 1.34 0 0.68 0 0 Z " fill="#A2CBE0" transform="translate(420,154)"/>
<path d="M0 0 C1.485 0.99 1.485 0.99 3 2 C2.67 4.31 2.34 6.62 2 9 C1.01 8.34 0.02 7.68 -1 7 C-0.67 4.69 -0.34 2.38 0 0 Z " fill="#94BDD3" transform="translate(235,148)"/>
<path d="M0 0 C2.97 0.33 5.94 0.66 9 1 C8.67 3.31 8.34 5.62 8 8 C7.34 7.67 6.68 7.34 6 7 C6.33 5.68 6.66 4.36 7 3 C5.02 3.33 3.04 3.66 1 4 C0.67 2.68 0.34 1.36 0 0 Z " fill="#A2DBF4" transform="translate(98,150)"/>
<path d="M0 0 C2.31 0.33 4.62 0.66 7 1 C7 2.32 7 3.64 7 5 C4.69 4.34 2.38 3.68 0 3 C0 2.01 0 1.02 0 0 Z " fill="#8FBCD4" transform="translate(280,143)"/>
<path d="M0 0 C0.99 0.33 1.98 0.66 3 1 C3 1.66 3 2.32 3 3 C-0.32561865 4.76062164 -1.59173995 5.10784228 -5.3125 4.125 C-6.199375 3.75375 -7.08625 3.3825 -8 3 C-8 2.67 -8 2.34 -8 2 C-6.865625 1.855625 -5.73125 1.71125 -4.5625 1.5625 C-1.19222799 1.38828522 -1.19222799 1.38828522 0 0 Z " fill="#8EC9E8" transform="translate(66,110)"/>
<path d="M0 0 C2.31 0 4.62 0 7 0 C6.67 0.99 6.34 1.98 6 3 C3.125 3.625 3.125 3.625 0 4 C-0.66 3.34 -1.32 2.68 -2 2 C-1.34 2 -0.68 2 0 2 C0 1.34 0 0.68 0 0 Z " fill="#A9D2E7" transform="translate(395,143)"/>
<path d="M0 0 C0.99 1.32 1.98 2.64 3 4 C2.01 5.485 2.01 5.485 1 7 C0.01 6.67 -0.98 6.34 -2 6 C-2.6875 3.9375 -2.6875 3.9375 -3 2 C-2.01 1.34 -1.02 0.68 0 0 Z " fill="#AED0E8" transform="translate(142,139)"/>
<path d="M0 0 C1.65 0 3.3 0 5 0 C5 0.66 5 1.32 5 2 C5.66 2.33 6.32 2.66 7 3 C6 4 6 4 2.9375 4.0625 C1.4834375 4.0315625 1.4834375 4.0315625 0 4 C0 2.68 0 1.36 0 0 Z " fill="#AFD8EC" transform="translate(206,156)"/>
<path d="M0 0 C0.66 0.66 1.32 1.32 2 2 C1.625 4.125 1.625 4.125 1 6 C-0.32 5.67 -1.64 5.34 -3 5 C-3 4.01 -3 3.02 -3 2 C-2.01 1.34 -1.02 0.68 0 0 Z " fill="#94C0DA" transform="translate(51,136)"/>
<path d="M0 0 C2 3 2 3 2 5 C0.35 5 -1.3 5 -3 5 C-3.33 3.68 -3.66 2.36 -4 1 C-2.68 0.67 -1.36 0.34 0 0 Z " fill="#ADDAEE" transform="translate(174,155)"/>
<path d="M0 0 C0.66 0.33 1.32 0.66 2 1 C2 3.64 2 6.28 2 9 C0.5 7.8125 0.5 7.8125 -1 6 C-1.25 3.375 -1.25 3.375 -1 1 C-0.67 0.67 -0.34 0.34 0 0 Z " fill="#94C0D7" transform="translate(69,156)"/>
<path d="M0 0 C1.32 0 2.64 0 4 0 C4 3.63 4 7.26 4 11 C3.67 11 3.34 11 3 11 C3 8.03 3 5.06 3 2 C1.68 2.33 0.36 2.66 -1 3 C-0.67 2.01 -0.34 1.02 0 0 Z " fill="#88B5CD" transform="translate(68,143)"/>
<path d="M0 0 C1.4540625 0.0309375 1.4540625 0.0309375 2.9375 0.0625 C3.2675 1.3825 3.5975 2.7025 3.9375 4.0625 C2.761875 4.0315625 2.761875 4.0315625 1.5625 4 C-1.04364961 3.87565937 -1.04364961 3.87565937 -3.0625 5.0625 C-3.625 3.125 -3.625 3.125 -4.0625 1.0625 C-3.0625 0.0625 -3.0625 0.0625 0 0 Z " fill="#A6D5EC" transform="translate(357.0625,142.9375)"/>
<path d="M0 0 C1.32 0 2.64 0 4 0 C4 1.65 4 3.3 4 5 C2.68 5 1.36 5 0 5 C0 3.35 0 1.7 0 0 Z " fill="#8FC6E3" transform="translate(85,138)"/>
<path d="M0 0 C0.99 0 1.98 0 3 0 C2.67 2.64 2.34 5.28 2 8 C1.01 8 0.02 8 -1 8 C-0.67 5.36 -0.34 2.72 0 0 Z " fill="#99CDEB" transform="translate(71,72)"/>
<path d="M0 0 C0.33 0.66 0.66 1.32 1 2 C0.67 2.66 0.34 3.32 0 4 C0.66 4 1.32 4 2 4 C2 4.99 2 5.98 2 7 C1.01 7.33 0.02 7.66 -1 8 C-1.625 5.125 -1.625 5.125 -2 2 C-1.34 1.34 -0.68 0.68 0 0 Z " fill="#97BFD3" transform="translate(372,151)"/>
<path d="M0 0 C1.32 0.33 2.64 0.66 4 1 C4 2.98 4 4.96 4 7 C3.01 7.33 2.02 7.66 1 8 C0.67 5.36 0.34 2.72 0 0 Z " fill="#8BBCD9" transform="translate(56,146)"/>
<path d="M0 0 C0.33 0.66 0.66 1.32 1 2 C1.99 2.33 2.98 2.66 4 3 C3.34 4.32 2.68 5.64 2 7 C1.34 7 0.68 7 0 7 C-0.38133299 5.0085944 -0.71325582 3.00720923 -1 1 C-0.67 0.67 -0.34 0.34 0 0 Z " fill="#A6CBE7" transform="translate(309,142)"/>
<path d="M0 0 C0.99 0 1.98 0 3 0 C2.67 3.63 2.34 7.26 2 11 C1.67 11 1.34 11 1 11 C1 8.69 1 6.38 1 4 C0.34 4 -0.32 4 -1 4 C-0.67 2.68 -0.34 1.36 0 0 Z " fill="#A0CEEE" transform="translate(44,141)"/>
<path d="M0 0 C0.99 0.33 1.98 0.66 3 1 C2.67 2.32 2.34 3.64 2 5 C0.68 4.67 -0.64 4.34 -2 4 C-1.34 2.68 -0.68 1.36 0 0 Z " fill="#A5CDE0" transform="translate(254,137)"/>
<path d="M0 0 C1.32 0.66 2.64 1.32 4 2 C4 2.99 4 3.98 4 5 C2.35 5 0.7 5 -1 5 C-0.67 3.35 -0.34 1.7 0 0 Z " fill="#A8D2E6" transform="translate(134,155)"/>
<path d="M0 0 C0.99 0 1.98 0 3 0 C3 1.65 3 3.3 3 5 C2.01 5.495 2.01 5.495 1 6 C1 5.34 1 4.68 1 4 C0.34 4 -0.32 4 -1 4 C-0.67 2.68 -0.34 1.36 0 0 Z " fill="#A6C7DB" transform="translate(247,143)"/>
<path d="M0 0 C0.99 0.33 1.98 0.66 3 1 C3 2.32 3 3.64 3 5 C1.68 5 0.36 5 -1 5 C-0.67 3.35 -0.34 1.7 0 0 Z " fill="#9ECCE3" transform="translate(76,137)"/>
<path d="M0 0 C1.65 0 3.3 0 5 0 C4.67 1.32 4.34 2.64 4 4 C2.35 3.67 0.7 3.34 -1 3 C-0.67 2.01 -0.34 1.02 0 0 Z " fill="#ABD6EC" transform="translate(153,156)"/>
<path d="M0 0 C1.64826111 2.96687001 2.44271087 5.65626525 3 9 C1.68 8.01 0.36 7.02 -1 6 C-0.67 4.02 -0.34 2.04 0 0 Z " fill="#9ED1E6" transform="translate(149,148)"/>
<path d="M0 0 C1.98 0 3.96 0 6 0 C5.67 0.99 5.34 1.98 5 3 C1.9375 4.1875 1.9375 4.1875 -1 5 C-0.67 3.35 -0.34 1.7 0 0 Z " fill="#A6D4E8" transform="translate(187,143)"/>
<path d="M0 0 C0.66 0.66 1.32 1.32 2 2 C1.34 3.98 0.68 5.96 0 8 C-0.66 8 -1.32 8 -2 8 C-2 6.02 -2 4.04 -2 2 C-1.34 2 -0.68 2 0 2 C0 1.34 0 0.68 0 0 Z " fill="#9CCEEB" transform="translate(91,49)"/>
<path d="M0 0 C3 1 3 1 3 1 Z " fill="#FFFFFF" transform="translate(60,148)"/>
<path d="M0 0 C2 1 2 1 2 1 Z " fill="#FFFFFF" transform="translate(142,163)"/>
<path d="M0 0 C2 1 2 1 2 1 Z " fill="#FFFFFF" transform="translate(271,159)"/>
<path d="" fill="#FFFFFF" transform="translate(0,0)"/>
<path d="" fill="#FFFFFF" transform="translate(0,0)"/>
<path d="M0 0 C2 1 2 1 2 1 Z " fill="#FFFFFF" transform="translate(155,152)"/>
<path d="M0 0 C2 1 2 1 2 1 Z " fill="#FFFFFF" transform="translate(385,139)"/>
<path d="" fill="#FFFFFF" transform="translate(0,0)"/>
<path d="" fill="#FFFFFF" transform="translate(0,0)"/>
<path d="M0 0 C2 1 2 1 2 1 Z " fill="#FFFFFF" transform="translate(326,137)"/>
<path d="M0 0 C2 1 2 1 2 1 Z " fill="#FFFFFF" transform="translate(107,136)"/>
<path d="" fill="#FFFFFF" transform="translate(0,0)"/>
<path d="" fill="#FFFFFF" transform="translate(0,0)"/>
<path d="" fill="#FFFFFF" transform="translate(0,0)"/>
<path d="M0 0 C2 1 2 1 2 1 Z " fill="#FFFFFF" transform="translate(409,102)"/>
<path d="M0 0 C2 1 2 1 2 1 Z " fill="#FFFFFF" transform="translate(306,96)"/>
<path d="M0 0 C2 1 2 1 2 1 Z " fill="#FFFFFF" transform="translate(316,70)"/>
<path d="" fill="#FFFFFF" transform="translate(0,0)"/>
<path d="" fill="#FFFFFF" transform="translate(0,0)"/>
<path d="" fill="#FFFFFF" transform="translate(0,0)"/>
<path d="" fill="#FFFFFF" transform="translate(0,0)"/>
<path d="" fill="#FFFFFF" transform="translate(0,0)"/>
<path d="" fill="#FFFFFF" transform="translate(0,0)"/>
<path d="" fill="#FFFFFF" transform="translate(0,0)"/>
<path d="" fill="#00FFFF" transform="translate(0,0)"/>
<path d="" fill="#FFFFFF" transform="translate(0,0)"/>
<path d="" fill="#FFFFFF" transform="translate(0,0)"/>
<path d="" fill="#FFFFFF" transform="translate(0,0)"/>
<path d="" fill="#FFFFFF" transform="translate(0,0)"/>
<path d="" fill="#FFFFFF" transform="translate(0,0)"/>
<path d="" fill="#FFFFFF" transform="translate(0,0)"/>
<path d="" fill="#FFFFFF" transform="translate(0,0)"/>
<path d="" fill="#FFFFFF" transform="translate(0,0)"/>
<path d="" fill="#FFFFFF" transform="translate(0,0)"/>
<path d="" fill="#FFFFFF" transform="translate(0,0)"/>
<path d="" fill="#FFFFFF" transform="translate(0,0)"/>
<path d="" fill="#FFFFFF" transform="translate(0,0)"/>
<path d="" fill="#FFFFFF" transform="translate(0,0)"/>
<path d="" fill="#FFFFFF" transform="translate(0,0)"/>
<path d="" fill="#FFFFFF" transform="translate(0,0)"/>
<path d="" fill="#FFFFFF" transform="translate(0,0)"/>
<path d="" fill="#FFFFFF" transform="translate(0,0)"/>
<path d="" fill="#FFFFFF" transform="translate(0,0)"/>
<path d="" fill="#FFFFFF" transform="translate(0,0)"/>
<path d="" fill="#FFFFFF" transform="translate(0,0)"/>
<path d="" fill="#FFFFFF" transform="translate(0,0)"/>
<path d="" fill="#FFFFFF" transform="translate(0,0)"/>
<path d="" fill="#FFFFFF" transform="translate(0,0)"/>
<path d="" fill="#FFFFFF" transform="translate(0,0)"/>
<path d="" fill="#FFFFFF" transform="translate(0,0)"/>
<path d="" fill="#FFFFFF" transform="translate(0,0)"/>
<path d="" fill="#FFFFFF" transform="translate(0,0)"/>
<path d="" fill="#FFFFFF" transform="translate(0,0)"/>
<path d="" fill="#00FFFF" transform="translate(0,0)"/>
<path d="" fill="#FFFFFF" transform="translate(0,0)"/>
<path d="" fill="#FFFFFF" transform="translate(0,0)"/>
<path d="" fill="#FFFFFF" transform="translate(0,0)"/>
<path d="" fill="#FFFFFF" transform="translate(0,0)"/>
<path d="" fill="#00FFFF" transform="translate(0,0)"/>
<path d="" fill="#FFFFFF" transform="translate(0,0)"/>
<path d="" fill="#FFFFFF" transform="translate(0,0)"/>
<path d="" fill="#FFFFFF" transform="translate(0,0)"/>
<path d="" fill="#FFFFFF" transform="translate(0,0)"/>
<path d="" fill="#FFFFFF" transform="translate(0,0)"/>
<path d="" fill="#FFFFFF" transform="translate(0,0)"/>
<path d="" fill="#FFFFFF" transform="translate(0,0)"/>
<path d="" fill="#FFFFFF" transform="translate(0,0)"/>
<path d="" fill="#FFFFFF" transform="translate(0,0)"/>
<path d="" fill="#FFFFFF" transform="translate(0,0)"/>
<path d="" fill="#FFFFFF" transform="translate(0,0)"/>
<path d="" fill="#FFFFFF" transform="translate(0,0)"/>
<path d="" fill="#FFFFFF" transform="translate(0,0)"/>
<path d="" fill="#FFFFFF" transform="translate(0,0)"/>
<path d="" fill="#FFFFFF" transform="translate(0,0)"/>
<path d="" fill="#FFFFFF" transform="translate(0,0)"/>
<path d="" fill="#FFFFFF" transform="translate(0,0)"/>
<path d="" fill="#FFFFFF" transform="translate(0,0)"/>
<path d="" fill="#FFFFFF" transform="translate(0,0)"/>
<path d="" fill="#FFFFFF" transform="translate(0,0)"/>
<path d="" fill="#FFFFFF" transform="translate(0,0)"/>
<path d="" fill="#FFFFFF" transform="translate(0,0)"/>
<path d="" fill="#FFFFFF" transform="translate(0,0)"/>
<path d="" fill="#FFFFFF" transform="translate(0,0)"/>
<path d="" fill="#FFFFFF" transform="translate(0,0)"/>
<path d="" fill="#FFFFFF" transform="translate(0,0)"/>
<path d="" fill="#FFFFFF" transform="translate(0,0)"/>
<path d="" fill="#FFFFFF" transform="translate(0,0)"/>
<path d="" fill="#FFFFFF" transform="translate(0,0)"/>
<path d="" fill="#FFFFFF" transform="translate(0,0)"/>
<path d="" fill="#FFFFFF" transform="translate(0,0)"/>
<path d="" fill="#00FFFF" transform="translate(0,0)"/>
<path d="" fill="#FFFFFF" transform="translate(0,0)"/>
<path d="" fill="#FFFFFF" transform="translate(0,0)"/>
<path d="" fill="#FFFFFF" transform="translate(0,0)"/>
<path d="" fill="#FFFFFF" transform="translate(0,0)"/>
<path d="" fill="#FFFFFF" transform="translate(0,0)"/>
<path d="" fill="#FFFFFF" transform="translate(0,0)"/>
<path d="" fill="#FFFFFF" transform="translate(0,0)"/>
<path d="" fill="#FFFFFF" transform="translate(0,0)"/>
<path d="" fill="#FFFFFF" transform="translate(0,0)"/>
<path d="" fill="#FFFFFF" transform="translate(0,0)"/>
<path d="" fill="#FFFFFF" transform="translate(0,0)"/>
<path d="" fill="#FFFFFF" transform="translate(0,0)"/>
<path d="" fill="#FFFFFF" transform="translate(0,0)"/>
<path d="" fill="#FFFFFF" transform="translate(0,0)"/>
<path d="" fill="#FFFFFF" transform="translate(0,0)"/>
<path d="" fill="#FFFFFF" transform="translate(0,0)"/>
<path d="" fill="#FFFFFF" transform="translate(0,0)"/>
<path d="" fill="#FFFFFF" transform="translate(0,0)"/>
<path d="" fill="#FFFFFF" transform="translate(0,0)"/>
<path d="" fill="#FFFFFF" transform="translate(0,0)"/>
<path d="" fill="#FFFFFF" transform="translate(0,0)"/>
<path d="" fill="#FFFFFF" transform="translate(0,0)"/>
<path d="" fill="#FFFFFF" transform="translate(0,0)"/>
<path d="" fill="#FFFFFF" transform="translate(0,0)"/>
<path d="" fill="#FFFFFF" transform="translate(0,0)"/>
<path d="" fill="#FFFFFF" transform="translate(0,0)"/>
<path d="" fill="#FFFFFF" transform="translate(0,0)"/>
<path d="" fill="#FFFFFF" transform="translate(0,0)"/>
<path d="" fill="#FFFFFF" transform="translate(0,0)"/>
<path d="" fill="#00FFFF" transform="translate(0,0)"/>
<path d="" fill="#00FFFF" transform="translate(0,0)"/>
<path d="" fill="#00FFFF" transform="translate(0,0)"/>
<path d="" fill="#FFFFFF" transform="translate(0,0)"/>
<path d="" fill="#FFFFFF" transform="translate(0,0)"/>
<path d="" fill="#FFFFFF" transform="translate(0,0)"/>
<path d="" fill="#FFFFFF" transform="translate(0,0)"/>
<path d="" fill="#FFFFFF" transform="translate(0,0)"/>
<path d="" fill="#FFFFFF" transform="translate(0,0)"/>
<path d="" fill="#FFFFFF" transform="translate(0,0)"/>
<path d="" fill="#FFFFFF" transform="translate(0,0)"/>
<path d="" fill="#FFFFFF" transform="translate(0,0)"/>
<path d="" fill="#FFFFFF" transform="translate(0,0)"/>
<path d="" fill="#FFFFFF" transform="translate(0,0)"/>
<path d="" fill="#FFFFFF" transform="translate(0,0)"/>
<path d="" fill="#FFFFFF" transform="translate(0,0)"/>
<path d="" fill="#FFFFFF" transform="translate(0,0)"/>
<path d="" fill="#FFFFFF" transform="translate(0,0)"/>
<path d="" fill="#FFFFFF" transform="translate(0,0)"/>
<path d="" fill="#FFFFFF" transform="translate(0,0)"/>
<path d="" fill="#FFFFFF" transform="translate(0,0)"/>
<path d="" fill="#FFFFFF" transform="translate(0,0)"/>
<path d="" fill="#FFFFFF" transform="translate(0,0)"/>
<path d="" fill="#FFFFFF" transform="translate(0,0)"/>
<path d="" fill="#FFFFFF" transform="translate(0,0)"/>
<path d="" fill="#FFFFFF" transform="translate(0,0)"/>
<path d="" fill="#FFFFFF" transform="translate(0,0)"/>
<path d="" fill="#00FFFF" transform="translate(0,0)"/>
<path d="" fill="#FFFFFF" transform="translate(0,0)"/>
<path d="" fill="#FFFFFF" transform="translate(0,0)"/>
<path d="" fill="#FFFFFF" transform="translate(0,0)"/>
<path d="" fill="#FFFFFF" transform="translate(0,0)"/>
<path d="" fill="#FFFFFF" transform="translate(0,0)"/>
<path d="" fill="#FFFFFF" transform="translate(0,0)"/>
<path d="" fill="#FFFFFF" transform="translate(0,0)"/>
<path d="" fill="#FFFFFF" transform="translate(0,0)"/>
<path d="" fill="#FFFFFF" transform="translate(0,0)"/>
<path d="" fill="#FFFFFF" transform="translate(0,0)"/>
<path d="" fill="#FFFFFF" transform="translate(0,0)"/>
<path d="" fill="#FFFFFF" transform="translate(0,0)"/>
<path d="" fill="#FFFFFF" transform="translate(0,0)"/>
<path d="" fill="#FFFFFF" transform="translate(0,0)"/>
<path d="" fill="#FFFFFF" transform="translate(0,0)"/>
<path d="" fill="#FFFFFF" transform="translate(0,0)"/>
<path d="" fill="#FFFFFF" transform="translate(0,0)"/>
<path d="" fill="#FFFFFF" transform="translate(0,0)"/>
<path d="" fill="#FFFFFF" transform="translate(0,0)"/>
<path d="" fill="#FFFFFF" transform="translate(0,0)"/>
<path d="" fill="#FFFFFF" transform="translate(0,0)"/>
<path d="" fill="#FFFFFF" transform="translate(0,0)"/>
<path d="" fill="#FFFFFF" transform="translate(0,0)"/>
<path d="" fill="#FFFFFF" transform="translate(0,0)"/>
<path d="" fill="#FFFFFF" transform="translate(0,0)"/>
<path d="" fill="#FFFFFF" transform="translate(0,0)"/>
<path d="" fill="#FFFFFF" transform="translate(0,0)"/>
<path d="" fill="#FFFFFF" transform="translate(0,0)"/>
<path d="" fill="#FFFFFF" transform="translate(0,0)"/>
<path d="" fill="#FFFFFF" transform="translate(0,0)"/>
<path d="" fill="#FFFFFF" transform="translate(0,0)"/>
<path d="" fill="#FFFFFF" transform="translate(0,0)"/>
<path d="" fill="#FFFFFF" transform="translate(0,0)"/>
<path d="" fill="#FFFFFF" transform="translate(0,0)"/>
<path d="" fill="#FFFFFF" transform="translate(0,0)"/>
<path d="" fill="#FFFFFF" transform="translate(0,0)"/>
<path d="" fill="#FFFFFF" transform="translate(0,0)"/>
<path d="" fill="#FFFFFF" transform="translate(0,0)"/>
<path d="" fill="#FFFFFF" transform="translate(0,0)"/>
<path d="" fill="#FFFFFF" transform="translate(0,0)"/>
<path d="" fill="#FFFFFF" transform="translate(0,0)"/>
<path d="" fill="#FFFFFF" transform="translate(0,0)"/>
<path d="" fill="#FFFFFF" transform="translate(0,0)"/>
<path d="" fill="#FFFFFF" transform="translate(0,0)"/>
<path d="" fill="#FFFFFF" transform="translate(0,0)"/>
<path d="" fill="#FFFFFF" transform="translate(0,0)"/>
<path d="" fill="#FFFFFF" transform="translate(0,0)"/>
<path d="" fill="#FFFFFF" transform="translate(0,0)"/>
<path d="" fill="#FFFFFF" transform="translate(0,0)"/>
<path d="" fill="#FFFFFF" transform="translate(0,0)"/>
<path d="" fill="#FFFFFF" transform="translate(0,0)"/>
<path d="" fill="#FFFFFF" transform="translate(0,0)"/>
<path d="" fill="#FFFFFF" transform="translate(0,0)"/>
<path d="" fill="#FFFFFF" transform="translate(0,0)"/>
<path d="" fill="#FFFFFF" transform="translate(0,0)"/>
<path d="" fill="#FFFFFF" transform="translate(0,0)"/>
<path d="" fill="#FFFFFF" transform="translate(0,0)"/>
<path d="" fill="#FFFFFF" transform="translate(0,0)"/>
<path d="" fill="#FFFFFF" transform="translate(0,0)"/>
<path d="" fill="#FFFFFF" transform="translate(0,0)"/>
<path d="" fill="#FFFFFF" transform="translate(0,0)"/>
<path d="" fill="#FFFFFF" transform="translate(0,0)"/>
<path d="" fill="#FFFFFF" transform="translate(0,0)"/>
<path d="" fill="#FFFFFF" transform="translate(0,0)"/>
<path d="" fill="#00FFFF" transform="translate(0,0)"/>
<path d="" fill="#FFFFFF" transform="translate(0,0)"/>
<path d="" fill="#FFFFFF" transform="translate(0,0)"/>
<path d="" fill="#FFFFFF" transform="translate(0,0)"/>
<path d="" fill="#FFFFFF" transform="translate(0,0)"/>
<path d="" fill="#FFFFFF" transform="translate(0,0)"/>
<path d="" fill="#FFFFFF" transform="translate(0,0)"/>
<path d="" fill="#FFFFFF" transform="translate(0,0)"/>
<path d="" fill="#FFFFFF" transform="translate(0,0)"/>
<path d="" fill="#FFFFFF" transform="translate(0,0)"/>
<path d="" fill="#FFFFFF" transform="translate(0,0)"/>
<path d="" fill="#FFFFFF" transform="translate(0,0)"/>
<path d="" fill="#FFFFFF" transform="translate(0,0)"/>
<path d="" fill="#FFFFFF" transform="translate(0,0)"/>
<path d="" fill="#FFFFFF" transform="translate(0,0)"/>
<path d="" fill="#FFFFFF" transform="translate(0,0)"/>
<path d="" fill="#FFFFFF" transform="translate(0,0)"/>
<path d="" fill="#FFFFFF" transform="translate(0,0)"/>
<path d="" fill="#FFFFFF" transform="translate(0,0)"/>
<path d="" fill="#FFFFFF" transform="translate(0,0)"/>
<path d="" fill="#FFFFFF" transform="translate(0,0)"/>
<path d="" fill="#FFFFFF" transform="translate(0,0)"/>
<path d="" fill="#FFFFFF" transform="translate(0,0)"/>
<path d="" fill="#FFFFFF" transform="translate(0,0)"/>
<path d="" fill="#FFFFFF" transform="translate(0,0)"/>
<path d="" fill="#FFFFFF" transform="translate(0,0)"/>
<path d="" fill="#FFFFFF" transform="translate(0,0)"/>
<path d="" fill="#FFFFFF" transform="translate(0,0)"/>
<path d="" fill="#FFFFFF" transform="translate(0,0)"/>
<path d="" fill="#FFFFFF" transform="translate(0,0)"/>
<path d="" fill="#FFFFFF" transform="translate(0,0)"/>
<path d="" fill="#FFFFFF" transform="translate(0,0)"/>
<path d="" fill="#FFFFFF" transform="translate(0,0)"/>
<path d="" fill="#FFFFFF" transform="translate(0,0)"/>
<path d="" fill="#FFFFFF" transform="translate(0,0)"/>
<path d="" fill="#FFFFFF" transform="translate(0,0)"/>
<path d="" fill="#FFFFFF" transform="translate(0,0)"/>
<path d="" fill="#FFFFFF" transform="translate(0,0)"/>
<path d="" fill="#FFFFFF" transform="translate(0,0)"/>
<path d="" fill="#FFFFFF" transform="translate(0,0)"/>
<path d="" fill="#FFFFFF" transform="translate(0,0)"/>
<path d="" fill="#FFFFFF" transform="translate(0,0)"/>
<path d="" fill="#FFFFFF" transform="translate(0,0)"/>
<path d="" fill="#FFFFFF" transform="translate(0,0)"/>
<path d="" fill="#FFFFFF" transform="translate(0,0)"/>
<path d="" fill="#FFFFFF" transform="translate(0,0)"/>
<path d="" fill="#FFFFFF" transform="translate(0,0)"/>
<path d="" fill="#FFFFFF" transform="translate(0,0)"/>
<path d="" fill="#FFFFFF" transform="translate(0,0)"/>
<path d="" fill="#FFFFFF" transform="translate(0,0)"/>
<path d="" fill="#FFFFFF" transform="translate(0,0)"/>
<path d="" fill="#FFFFFF" transform="translate(0,0)"/>
<path d="" fill="#FFFFFF" transform="translate(0,0)"/>
<path d="" fill="#FFFFFF" transform="translate(0,0)"/>
<path d="" fill="#FFFFFF" transform="translate(0,0)"/>
<path d="" fill="#FFFFFF" transform="translate(0,0)"/>
<path d="" fill="#FFFFFF" transform="translate(0,0)"/>
<path d="" fill="#FFFFFF" transform="translate(0,0)"/>
<path d="" fill="#FFFFFF" transform="translate(0,0)"/>
<path d="" fill="#FFFFFF" transform="translate(0,0)"/>
<path d="" fill="#FFFFFF" transform="translate(0,0)"/>
<path d="" fill="#FFFFFF" transform="translate(0,0)"/>
<path d="" fill="#FFFFFF" transform="translate(0,0)"/>
<path d="" fill="#FFFFFF" transform="translate(0,0)"/>
<path d="" fill="#FFFFFF" transform="translate(0,0)"/>
<path d="" fill="#FFFFFF" transform="translate(0,0)"/>
<path d="" fill="#FFFFFF" transform="translate(0,0)"/>
<path d="" fill="#FFFFFF" transform="translate(0,0)"/>
<path d="" fill="#FFFFFF" transform="translate(0,0)"/>
<path d="" fill="#FFFFFF" transform="translate(0,0)"/>
<path d="" fill="#FFFFFF" transform="translate(0,0)"/>
<path d="" fill="#FFFFFF" transform="translate(0,0)"/>
<path d="" fill="#FFFFFF" transform="translate(0,0)"/>
<path d="" fill="#FFFFFF" transform="translate(0,0)"/>
<path d="" fill="#FFFFFF" transform="translate(0,0)"/>
<path d="" fill="#FFFFFF" transform="translate(0,0)"/>
<path d="" fill="#FFFFFF" transform="translate(0,0)"/>
<path d="" fill="#FFFFFF" transform="translate(0,0)"/>
<path d="" fill="#FFFFFF" transform="translate(0,0)"/>
<path d="" fill="#FFFFFF" transform="translate(0,0)"/>
<path d="" fill="#FFFFFF" transform="translate(0,0)"/>
<path d="" fill="#FFFFFF" transform="translate(0,0)"/>
<path d="" fill="#FFFFFF" transform="translate(0,0)"/>
<path d="" fill="#FFFFFF" transform="translate(0,0)"/>
<path d="" fill="#FFFFFF" transform="translate(0,0)"/>
<path d="" fill="#FFFFFF" transform="translate(0,0)"/>
<path d="" fill="#FFFFFF" transform="translate(0,0)"/>
<path d="" fill="#FFFFFF" transform="translate(0,0)"/>
<path d="" fill="#FFFFFF" transform="translate(0,0)"/>
<path d="" fill="#FFFFFF" transform="translate(0,0)"/>
<path d="" fill="#FFFFFF" transform="translate(0,0)"/>
<path d="" fill="#FFFFFF" transform="translate(0,0)"/>
<path d="" fill="#FFFFFF" transform="translate(0,0)"/>
<path d="" fill="#FFFFFF" transform="translate(0,0)"/>
<path d="" fill="#FFFFFF" transform="translate(0,0)"/>
<path d="" fill="#FFFFFF" transform="translate(0,0)"/>
<path d="" fill="#FFFFFF" transform="translate(0,0)"/>
<path d="" fill="#FFFFFF" transform="translate(0,0)"/>
<path d="" fill="#FFFFFF" transform="translate(0,0)"/>
<path d="" fill="#FFFFFF" transform="translate(0,0)"/>
<path d="" fill="#FFFFFF" transform="translate(0,0)"/>
<path d="" fill="#FFFFFF" transform="translate(0,0)"/>
<path d="" fill="#FFFFFF" transform="translate(0,0)"/>
<path d="" fill="#FFFFFF" transform="translate(0,0)"/>
<path d="" fill="#FFFFFF" transform="translate(0,0)"/>
<path d="" fill="#FFFFFF" transform="translate(0,0)"/>
<path d="" fill="#FFFFFF" transform="translate(0,0)"/>
<path d="" fill="#FFFFFF" transform="translate(0,0)"/>
<path d="" fill="#FFFFFF" transform="translate(0,0)"/>
<path d="" fill="#FFFFFF" transform="translate(0,0)"/>
<path d="" fill="#FFFFFF" transform="translate(0,0)"/>
<path d="" fill="#FFFFFF" transform="translate(0,0)"/>
<path d="" fill="#FFFFFF" transform="translate(0,0)"/>
<path d="" fill="#FFFFFF" transform="translate(0,0)"/>
<path d="" fill="#FFFFFF" transform="translate(0,0)"/>
<path d="" fill="#FFFFFF" transform="translate(0,0)"/>
<path d="" fill="#FFFFFF" transform="translate(0,0)"/>
<path d="" fill="#FFFFFF" transform="translate(0,0)"/>
<path d="" fill="#FFFFFF" transform="translate(0,0)"/>
<path d="" fill="#FFFFFF" transform="translate(0,0)"/>
<path d="" fill="#FFFFFF" transform="translate(0,0)"/>
<path d="" fill="#FFFFFF" transform="translate(0,0)"/>
<path d="" fill="#FFFFFF" transform="translate(0,0)"/>
<path d="" fill="#FFFFFF" transform="translate(0,0)"/>
<path d="" fill="#FFFFFF" transform="translate(0,0)"/>
<path d="" fill="#FFFFFF" transform="translate(0,0)"/>
<path d="" fill="#FFFFFF" transform="translate(0,0)"/>
<path d="" fill="#FFFFFF" transform="translate(0,0)"/>
<path d="" fill="#FFFFFF" transform="translate(0,0)"/>
<path d="" fill="#FFFFFF" transform="translate(0,0)"/>
<path d="" fill="#FFFFFF" transform="translate(0,0)"/>
<path d="" fill="#FFFFFF" transform="translate(0,0)"/>
<path d="" fill="#FFFFFF" transform="translate(0,0)"/>
<path d="" fill="#FFFFFF" transform="translate(0,0)"/>
<path d="" fill="#FFFFFF" transform="translate(0,0)"/>
<path d="" fill="#FFFFFF" transform="translate(0,0)"/>
<path d="" fill="#FFFFFF" transform="translate(0,0)"/>
<path d="" fill="#FFFFFF" transform="translate(0,0)"/>
<path d="" fill="#FFFFFF" transform="translate(0,0)"/>
<path d="" fill="#FFFFFF" transform="translate(0,0)"/>
<path d="" fill="#FFFFFF" transform="translate(0,0)"/>
<path d="" fill="#FFFFFF" transform="translate(0,0)"/>
<path d="" fill="#00FFFF" transform="translate(0,0)"/>
<path d="" fill="#FFFFFF" transform="translate(0,0)"/>
<path d="" fill="#00FFFF" transform="translate(0,0)"/>
<path d="" fill="#FFFFFF" transform="translate(0,0)"/>
<path d="" fill="#FFFFFF" transform="translate(0,0)"/>
<path d="" fill="#00FFFF" transform="translate(0,0)"/>
<path d="" fill="#00FFFF" transform="translate(0,0)"/>
<path d="" fill="#FFFFFF" transform="translate(0,0)"/>
<path d="" fill="#00FFFF" transform="translate(0,0)"/>
<path d="" fill="#FFFFFF" transform="translate(0,0)"/>
<path d="" fill="#FFFFFF" transform="translate(0,0)"/>
<path d="" fill="#FFFFFF" transform="translate(0,0)"/>
<path d="" fill="#FFFFFF" transform="translate(0,0)"/>
<path d="" fill="#00FFFF" transform="translate(0,0)"/>
<path d="" fill="#00FFFF" transform="translate(0,0)"/>
<path d="" fill="#FFFFFF" transform="translate(0,0)"/>
<path d="" fill="#FFFFFF" transform="translate(0,0)"/>
<path d="" fill="#FFFFFF" transform="translate(0,0)"/>
<path d="" fill="#00FFFF" transform="translate(0,0)"/>
<path d="" fill="#FFFFFF" transform="translate(0,0)"/>
<path d="" fill="#FFFFFF" transform="translate(0,0)"/>
<path d="" fill="#FFFFFF" transform="translate(0,0)"/>
<path d="" fill="#00FFFF" transform="translate(0,0)"/>
<path d="" fill="#00FFFF" transform="translate(0,0)"/>
</svg>
